<svg height="512" viewBox="0 0 58 58" width="512" xmlns="http://www.w3.org/2000/svg"><g id="Page-1" fill="none" fill-rule="evenodd"><g id="080---Global-Folder" fill-rule="nonzero"><path id="Shape" d="m48 16v-4c0-2.209139-1.790861-4-4-4h-18.78c-1.3808754-.00161879-2.664426-.71134674-3.4-1.88l-2.64-4.24c-.735574-1.16865326-2.0191246-1.87838121-3.4-1.88h-11.78c-2.209139 0-4 1.790861-4 4v50c-.00253809.4543259.07882556.9052162.24 1.33.55572211 1.6007497 2.06553304 2.672876 3.76 2.67h2z" fill="#f0c419"/><g fill="#f29c1f"><path id="Shape" d="m53.83 21.13-.98 2.87-11.61 34h-37.24c-1.69446696.002876-3.20427789-1.0692503-3.76-2.67l12.26-36.46c.5014383-1.7027039 2.064996-2.8713004 3.84-2.87h33.66c1.2596184.0022255 2.4446066.5976507 3.1981733 1.6069973.7535668 1.0093466.9876714 2.3146906.6318267 3.5230027z"/><path id="Shape" d="m4 7c-.55228475 0-1-.44771525-1-1v-2c0-.55228475.44771525-1 1-1s1 .44771525 1 1v2c0 .55228475-.44771525 1-1 1z"/><path id="Shape" d="m8 7c-.55228475 0-1-.44771525-1-1v-2c0-.55228475.44771525-1 1-1s1 .44771525 1 1v2c0 .55228475-.44771525 1-1 1z"/><path id="Shape" d="m12 7c-.5522847 0-1-.44771525-1-1v-2c0-.55228475.4477153-1 1-1s1 .44771525 1 1v2c0 .55228475-.4477153 1-1 1z"/><path id="Shape" d="m16 7c-.5522847 0-1-.44771525-1-1v-2c0-.55228475.4477153-1 1-1s1 .44771525 1 1v2c0 .55228475-.4477153 1-1 1z"/></g><path id="Shape" d="m57.83 29.13-8.91 26.16c-.5495606 1.6196681-2.0696371 2.7094584-3.78 2.71h-39.14l2.7-8 7.8-23.13c.5014383-1.7027039 2.064996-2.8713004 3.84-2.87h33.66c1.2596184.0022255 2.4446066.5976507 3.1981733 1.6069973.7535668 1.0093466.9876714 2.3146906.6318267 3.5230027z" fill="#f0c419"/><path id="Shape" d="m58 18c0 .33-.01.67-.03 1-.1518828 2.8412945-.9816681 5.6049595-2.42 8.06-.350474.6065321-.73787 1.1909657-1.16 1.75-2.3520112 3.1377232-5.6681165 5.4175456-9.44 6.49-.01 0-.01 0-.01.01-3.229084.9199877-6.650916.9199877-9.88 0l-.01-.01c-3.7718835-1.0724544-7.0879888-3.3522768-9.44-6.49-.4199831-.5549277-.8040982-1.1361105-1.15-1.74-1.4459562-2.4559809-2.2794359-5.2239568-2.43-8.07-.02-.33-.03-.67-.03-1s.01-.67.03-1c.1518828-2.8412945.9816681-5.6049595 2.42-8.06.350474-.60653205.73787-1.19096565 1.16-1.75 2.3520112-3.13772321 5.6681165-5.41754561 9.44-6.49.01 0 .01 0 .01-.01 3.229084-.9199877 6.650916-.9199877 9.88 0l.01.01c3.7718835 1.07245439 7.0879888 3.35227679 9.44 6.49.4199831.55492772.8040982 1.13611049 1.15 1.74 1.4459562 2.4559809 2.2794359 5.2239568 2.43 8.07.02.33.03.67.03 1z" fill="#2fa8cc"/><path id="Shape" d="m57.97 19c.02-.33.03-.67.03-1s-.01-.67-.03-1h-6c-.0672732-2.3600653-.4335275-4.7020763-1.09-6.97 1.572073-.28217251 3.1276897-.64937818 4.66-1.1-.3459018-.60388951-.7300169-1.18507228-1.15-1.74-1.32.36-2.71.67-4.16.93-1.016854-2.92600384-2.8487943-5.50043508-5.28-7.42l-.01-.01c-3.229084-.9199877-6.650916-.9199877-9.88 0 0 .01 0 .01-.01.01-2.4292197 1.92562081-4.2604969 4.50258866-5.28 7.43-1.45-.26-2.84-.57-4.16-.94-.42213.55903435-.809526 1.14346795-1.16 1.75 1.5369342.4458953 3.0956293.81303975 4.67 1.1-.6564809 2.2645079-1.0227438 4.6032141-1.09 6.96h-6c-.02.33-.03.67-.03 1s.01.67.03 1h6c.0672732 2.3600653.4335275 4.7020763 1.09 6.97-1.572073.2821725-3.1276897.6493782-4.66 1.1.3459018.6038895.7300169 1.1850723 1.15 1.74 1.32-.36 2.71-.67 4.16-.93 1.016854 2.9260038 2.8487943 5.5004351 5.28 7.42l.01.01c3.229084.9199877 6.650916.9199877 9.88 0 0-.01 0-.01.01-.01 2.4322995-1.9248489 4.2670032-4.5017579 5.29-7.43 1.45.26 2.83.57 4.15.94.42213-.5590343.809526-1.1434679 1.16-1.75-1.5372267-.4447809-3.0958649-.8119119-4.67-1.1.6557122-2.2646788 1.0219597-4.6032864 1.09-6.96zm-9.71-10.57c-1.24.17-2.51.31-3.81.4-.2429023-2.44589235-.8043202-4.84956756-1.67-7.15 2.25 1.11 4.18 3.53 5.48 6.75zm-8.28-7.43h.01c.7.21 1.8 2.99 2.46 7.95-.81.03-1.63.05-2.45.05s-1.64-.02-2.45-.05c.66-4.95 1.75-7.73 2.43-7.95zm.02 10c.9 0 1.79-.02 2.68-.06.17 1.8.28 3.83.31 6.06h-5.98c.03-2.23.14-4.26.31-6.06.89.04 1.78.06 2.68.06zm-2.78-9.32c-.8656798 2.30043244-1.4270977 4.70410765-1.67 7.15-1.3-.08666667-2.57-.21666667-3.81-.39 1.29-3.23 3.23-5.65 5.48-6.76zm-6.14 8.68c1.38.2 2.8.36 4.25.46-.2 2.14-.3 4.29-.32 6.18h-4.98c.0668987-2.2489145.4197331-4.4801724 1.05-6.64zm-1.05 8.64h4.98c.02 1.89.12 4.03.32 6.18-1.45.1-2.87.26-4.25.47-.6302356-2.1632494-.9830608-4.3978091-1.05-6.65zm1.71 8.57c1.24-.17 2.51-.31 3.81-.4.2429023 2.4458924.8043202 4.8495676 1.67 7.15-2.25-1.11-4.18-3.53-5.48-6.75zm8.28 7.43h-.01c-.7-.21-1.8-3-2.46-7.95.81-.03 1.63-.05 2.45-.05s1.64.02 2.45.05c-.66 4.95-1.75 7.73-2.43 7.95zm-.02-10c-.9 0-1.79.02-2.68.06-.17-1.8-.28-3.83-.31-6.06h5.98c-.03 2.23-.14 4.26-.31 6.06-.88-.04-1.78-.06-2.68-.06zm2.78 9.32c.8656798-2.3004324 1.4270977-4.7041076 1.67-7.15 1.3.09 2.57.22 3.81.39-1.29 3.22-3.22 5.65-5.48 6.76zm6.14-8.68c-1.38-.2-2.8-.36-4.25-.46.2-2.14.3-4.29.32-6.18h4.98c-.0668987 2.2489145-.4197331 4.4801724-1.05 6.64zm-3.93-8.64c-.02-1.89-.12-4.04-.32-6.18 1.45-.1 2.87-.26 4.25-.47.6302356 2.1632494.9830608 4.3978091 1.05 6.65z" fill="#2980ba"/></g></g></svg>