<?xml version="1.0" ?><!DOCTYPE svg  PUBLIC '-//W3C//DTD SVG 1.1//EN'  'http://www.w3.org/Graphics/SVG/1.1/DTD/svg11.dtd'><svg enable-background="new 0 0 24 24" height="24px" id="Layer_1" version="1.1" viewBox="0 0 24 24" width="24px" xml:space="preserve" xmlns="http://www.w3.org/2000/svg" xmlns:xlink="http://www.w3.org/1999/xlink"><g><path d="M2,16.5c-1.5,1.5-0.7,2-2,7.5c5.4-1.4,6-0.5,7.5-2C9,20.5,9,18,7.5,16.5C6,15,3.5,15,2,16.5z M6.8,21.3   c-1.1,1.1-2,0.7-5.4,1.4c0.7-3.4,0.2-4.3,1.4-5.4s3-1.1,4.1,0C7.9,18.3,7.9,20.1,6.8,21.3z"/><path d="M23.7,3.1l-2.8-2.8c-0.4-0.4-1-0.4-1.4,0L6,13.7c-0.2,0.2-0.3,0.5-0.3,0.8c0.9,0.2,1.7,0.6,2.4,1.3s1.1,1.5,1.3,2.4   c0.3,0,0.6-0.1,0.8-0.3L23.7,4.5C24.1,4.1,24.1,3.5,23.7,3.1z M9.5,15.8l-1.4-1.4l9.2-9.2l1.4,1.4L9.5,15.8z M19.4,5.9L18,4.5   l2.1-2.1l1.4,1.4L19.4,5.9z"/></g></svg>